<?xml version="1.0" encoding="UTF-8" standalone="no"?>
<svg
   width="61.289997"
   height="62.389996"
   viewBox="0 0 61.289997 62.389996"
   fill="none"
   version="1.1"
   id="svg2"
   sodipodi:docname="icon.svg"
   inkscape:version="1.3.2 (091e20ef0f, 2023-11-25)"
   inkscape:export-filename="logo512.png"
   inkscape:export-xdpi="787.8186"
   inkscape:export-ydpi="787.8186"
   xmlns:inkscape="http://www.inkscape.org/namespaces/inkscape"
   xmlns:sodipodi="http://sodipodi.sourceforge.net/DTD/sodipodi-0.dtd"
   xmlns="http://www.w3.org/2000/svg"
   xmlns:svg="http://www.w3.org/2000/svg">
  <sodipodi:namedview
     id="namedview2"
     pagecolor="#ffffff"
     bordercolor="#666666"
     borderopacity="1.0"
     inkscape:showpageshadow="2"
     inkscape:pageopacity="0.0"
     inkscape:pagecheckerboard="0"
     inkscape:deskcolor="#d1d1d1"
     showgrid="false"
     inkscape:zoom="4.6237597"
     inkscape:cx="51.256989"
     inkscape:cy="29.088882"
     inkscape:window-width="1151"
     inkscape:window-height="705"
     inkscape:window-x="0"
     inkscape:window-y="0"
     inkscape:window-maximized="1"
     inkscape:current-layer="svg2" />
  <defs
     id="defs2">
    <inkscape:path-effect
       effect="bend_path"
       id="path-effect9"
       is_visible="true"
       lpeversion="1"
       bendpath="m 6.1271904,31.95297 c 12.5243836,21.289186 25.2865616,15.287776 36.7316776,0"
       prop_scale="1"
       scale_y_rel="false"
       vertical="false"
       hide_knot="false"
       bendpath-nodetypes="cc" />
    <inkscape:path-effect
       effect="bend_path"
       id="path-effect8"
       is_visible="true"
       lpeversion="1"
       bendpath="m 62.440895,11.079285 c 9.523413,-9.8051397 17.984423,-7.733572 25.507748,0"
       prop_scale="1"
       scale_y_rel="false"
       vertical="false"
       hide_knot="false"
       bendpath-nodetypes="cc" />
    <radialGradient
       id="paint0_radial_504_17"
       cx="0"
       cy="0"
       r="1"
       gradientUnits="userSpaceOnUse"
       gradientTransform="matrix(-11.8152,22.153953,-22.153953,-11.8152,34.8,23.7231)">
      <stop
         offset="0.233085"
         stop-color="white"
         id="stop1" />
      <stop
         offset="1"
         stop-color="#E0E0E0"
         id="stop2" />
    </radialGradient>
    <filter
       style="color-interpolation-filters:sRGB"
       inkscape:label="Drop Shadow"
       id="filter33"
       x="-0.15217391"
       y="-0.15217391"
       width="1.3323913"
       height="1.3563043">
      <feFlood
         result="flood"
         in="SourceGraphic"
         flood-opacity="0.71345029239766078"
         flood-color="rgb(0,0,0)"
         id="feFlood32" />
      <feGaussianBlur
         result="blur"
         in="SourceGraphic"
         stdDeviation="2.500000"
         id="feGaussianBlur32" />
      <feOffset
         result="offset"
         in="blur"
         dx="1.29"
         dy="2.3900000000000001"
         id="feOffset32" />
      <feComposite
         result="comp1"
         operator="in"
         in="flood"
         in2="offset"
         id="feComposite32" />
      <feComposite
         result="comp2"
         operator="over"
         in="SourceGraphic"
         in2="comp1"
         id="feComposite33" />
    </filter>
  </defs>
  <g
     id="g35">
    <circle
       cx="30"
       cy="30"
       r="23"
       fill="url(#paint0_radial_504_17)"
       stroke="#000000"
       stroke-width="2"
       id="circle1"
       style="fill:url(#paint0_radial_504_17);filter:url(#filter33)" />
    <path
       style="font-weight:bold;font-size:13.3333px;line-height:0.95;font-family:Roboto;-inkscape-font-specification:Roboto;text-align:center;text-anchor:middle;fill:#000000"
       d="M 70.643023,7.7019495 C 70.121595,5.4746417 69.803258,3.1729227 69.717434,0.83334354 c 0.938183,-0.3053156 1.910719,-0.5372859 2.908742,-0.68764293 -0.594848,3.28063709 -0.58044,6.57644259 -0.06743,9.74637609 -0.355823,0.1225263 -0.711496,0.2652113 -1.063205,0.4244973 -0.125198,0.05591 -0.249976,0.114836 -0.374361,0.176663 -1.350131,-1.6857483 -2.879179,-3.241763 -4.547365,-4.6804897 0.597543,2.119155 1.367255,4.1635641 2.267735,6.1380557 -0.47722,0.367864 -0.950909,0.768757 -1.422743,1.194798 -2.622687,-1.899443 -5.434986,-3.6011812 -8.326245,-5.138838 0.573052,-0.6077266 1.178356,-1.2059149 1.817539,-1.7869166 1.935265,1.2808315 3.80461,2.641782 5.578726,4.0913736 -0.996528,-2.0902511 -1.862857,-4.2567114 -2.553958,-6.5048273 0.630067,-0.437004 1.2863,-0.8535383 1.969696,-1.244914 1.360079,1.2248525 2.624849,2.5269936 3.774242,3.9125958 0.332619,0.4019238 0.654222,0.8113921 0.96422,1.227875 z M 76.7972,9.6483763 c -0.441228,-0.085948 -0.803166,-0.2224655 -1.138726,-0.4510058 0,0 -10e-7,0 -10e-7,0 C 75.459171,9.0295855 75.262994,8.8281708 75.068038,8.5886982 74.569253,7.9719663 74.15719,7.1695896 74.040666,6.1268807 L 74.02046,5.9460674 c -0.07842,-0.7017247 -0.0065,-1.3475615 0.279987,-1.9245089 0.28564,-0.5801835 0.763013,-1.0363731 1.44058,-1.3137513 0.103634,-0.042684 0.210404,-0.080682 0.320151,-0.1138201 0.607409,-0.1696484 1.291495,-0.1857236 2.004863,-0.037604 1.264833,0.2626223 2.124293,0.8915157 2.533031,1.6943503 0.416773,0.8107688 0.325856,1.7263151 -0.146728,2.7272303 L 80.126868,7.6673096 C 78.767926,7.006238 77.361836,6.5877244 75.921967,6.5269063 c 0.02597,0.4599123 0.166013,0.8338357 0.39138,1.1279615 0.231129,0.2971018 0.521992,0.4706038 0.905107,0.5544023 0.591184,0.1293094 1.123135,0.051109 1.665769,-0.2950196 0.147278,0.424012 0.270746,0.8521111 0.373211,1.2829498 C 78.8667,9.4475862 78.457165,9.595502 78.029577,9.6697387 77.602239,9.7401485 77.20383,9.7275848 76.7972,9.6483763 Z m 0.966446,-5.619919 c -0.441304,-0.0892 -0.827191,-0.018901 -1.130157,0.1969651 -0.299772,0.217838 -0.495082,0.5621528 -0.599755,1.0253422 0.944438,0.060013 1.867671,0.2427466 2.767043,0.5253317 l 0.04407,-0.1407371 c 0.113572,-0.3944577 0.08791,-0.73565 -0.09575,-1.0185708 C 78.567215,4.3307101 78.235307,4.1237926 77.763646,4.0284573 Z m 9.046986,8.0028437 c -0.804945,0.787961 -1.628395,1.222445 -2.433875,1.344578 -0.807965,0.119834 -1.513493,-0.0872 -2.146154,-0.616539 -0.560152,-0.468674 -0.817946,-1.043929 -0.828891,-1.783946 -0.16606,0.190491 -0.331171,0.381587 -0.495316,0.573288 -0.414126,-0.303215 -0.826943,-0.583047 -1.237734,-0.833309 l 4.880845,-8.7154486 c 0.812825,0.4321427 1.589122,0.9053514 2.327905,1.4111296 l -2.092219,2.9558693 c 0.738393,-0.1088881 1.490691,0.1238757 2.180105,0.6987469 0.839791,0.7002651 1.230073,1.5289008 1.203104,2.3967688 -0.02034,0.874031 -0.464794,1.694727 -1.283256,2.49592 -0.02484,0.02431 -0.04968,0.04863 -0.07451,0.07294 z m -1.432709,-1.54165 C 85.8595,9.9521504 86.113998,9.4769722 86.130082,9.0512016 86.148953,8.6247295 85.949869,8.231249 85.528424,7.8947064 84.962454,7.4427553 84.407632,7.354838 83.908056,7.6061353 L 82.286681,9.8968 c -0.09798,0.546559 0.08434,0.99276 0.556635,1.37521 0.476244,0.385647 0.983746,0.428563 1.540728,0.108164 0.264591,-0.152424 0.598672,-0.449423 0.993879,-0.890523 z"
       id="path6"
       inkscape:path-effect="#path-effect8"
       inkscape:original-d="m 70.442176,13.2798 1.276039,-6.7447749 h 1.946609 l -2.102859,9.4791429 h -1.966141 l -1.542965,-6.34113 -1.542964,6.34113 H 64.543754 L 62.440895,6.5350251 h 1.946609 l 1.282549,6.7317539 1.562496,-6.7317539 h 1.653642 z m 7.193993,2.864576 q -1.549476,0 -2.526036,-0.950519 -0.970049,-0.950518 -0.970049,-2.532545 V 12.47902 q 0,-1.061195 0.410155,-1.894526 0.410155,-0.8398416 1.158851,-1.2890592 0.755207,-0.455728 1.718746,-0.455728 1.445309,0 2.27213,0.911456 0.833331,0.9114562 0.833331,2.5846292 v 0.768227 h -4.485666 q 0.09115,0.690102 0.546874,1.106768 0.462238,0.416666 1.165361,0.416666 1.087237,0 1.699215,-0.787759 l 0.924477,1.035154 q -0.423176,0.598957 -1.145831,0.937497 -0.722654,0.332031 -1.601558,0.332031 z M 77.421325,10.36314 q -0.559894,0 -0.911456,0.377604 -0.345051,0.377603 -0.442707,1.080726 h 2.617181 v -0.149739 q -0.01302,-0.624999 -0.338541,-0.963539 -0.32552,-0.345052 -0.924477,-0.345052 z m 10.527318,2.194005 q 0,1.692704 -0.722655,2.643223 -0.722654,0.944008 -2.018224,0.944008 -1.14583,0 -1.829422,-0.878904 l -0.08464,0.748696 h -1.6927 V 6.0141931 h 1.881506 v 3.5872305 q 0.65104,-0.7617168 1.712235,-0.7617168 1.28906,0 2.018224,0.9505184 0.735676,0.9440078 0.735676,2.6627538 z m -1.881506,-0.136718 q 0,-1.067706 -0.338541,-1.555986 -0.338541,-0.49479 -1.009112,-0.49479 -0.898435,0 -1.236976,0.735675 v 2.779941 q 0.345051,0.742186 1.249997,0.742186 0.911456,0 1.197914,-0.898436 0.136718,-0.429686 0.136718,-1.30859 z"
       transform="translate(-45.224738,11.137514)" />
    <path
       style="font-weight:bold;font-size:13.3333px;line-height:0.95;font-family:Roboto;-inkscape-font-specification:Roboto;text-align:center;text-anchor:middle;fill:#000000"
       d="m 23.224178,31.001033 q 0,-1.048175 0.403645,-1.868485 0.403644,-0.820311 1.158851,-1.269528 0.761717,-0.449218 1.764318,-0.449218 1.425778,0 2.324213,0.872394 0.904946,0.872394 1.009112,2.369786 l 0.01302,0.481769 q 0,1.62109 -0.904946,2.60416 -0.904945,0.97656 -2.428379,0.97656 -1.523434,0 -2.43489,-0.97656 -0.904945,-0.97656 -0.904945,-2.656243 z m 1.881505,0.136718 q 0,1.002602 0.377604,1.536455 0.377603,0.527342 1.080726,0.527342 0.683592,0 1.067706,-0.520832 0.384113,-0.527342 0.384113,-1.679683 0,-0.983071 -0.384113,-1.523434 -0.384114,-0.540363 -1.080727,-0.540363 -0.690102,0 -1.067705,0.540363 -0.377604,0.533853 -0.377604,1.660152 z m 6.464828,3.450512 V 28.924215 H 30.522336 V 27.54401 h 1.048175 v -0.598957 q 0,-1.184892 0.677081,-1.835932 0.683592,-0.657551 1.907548,-0.657551 0.390624,0 0.957029,0.130208 l -0.01953,1.45833 q -0.234374,-0.05859 -0.572915,-0.05859 -1.061195,0 -1.061195,0.996091 v 0.566405 h 1.399736 v 1.380205 h -1.399736 v 5.664048 z"
       id="path7" />
    <path
       style="font-weight:bold;font-size:13.3333px;line-height:0.95;font-family:Roboto;-inkscape-font-specification:Roboto;text-align:center;text-anchor:middle;fill:#000000;stroke-width:1.0291"
       d="M 9.1766629,38.186198 C 9.4677875,37.958098 9.5825234,37.647763 9.5319946,37.258817 9.484549,36.864131 9.286036,36.2561 8.965583,35.410601 8.6512665,34.569419 8.4575868,33.860616 8.3670066,33.324676 c -0.2480395,-1.478727 0.095693,-2.463411 0.9374808,-2.962145 0.4412081,-0.261403 0.9257816,-0.341272 1.4526586,-0.251794 0.533867,0.0918 1.066766,0.348925 1.601771,0.758912 0.538533,0.414863 1.015943,0.932916 1.448585,1.554394 0.434579,0.62426 0.725668,1.227728 0.886226,1.836712 0.163582,0.604902 0.184777,1.168436 0.05928,1.704721 -0.122123,0.538731 -0.382123,1.007435 -0.799157,1.390448 -0.504806,-0.556722 -0.991954,-1.143839 -1.464849,-1.755176 0.342036,-0.26812 0.508887,-0.603846 0.509465,-1.001295 0.004,-0.401579 -0.159043,-0.829947 -0.490207,-1.304582 -0.32009,-0.458763 -0.648181,-0.766623 -0.995264,-0.918816 -0.342652,-0.154251 -0.653794,-0.146071 -0.932561,0.03413 -0.259943,0.168033 -0.37596,0.468229 -0.339735,0.902502 0.03888,0.435242 0.193655,1.023728 0.479451,1.736872 0.527819,1.313058 0.84322,2.353206 0.885543,3.160479 0.04242,0.809166 -0.180174,1.467961 -0.722187,1.965758 -0.601229,0.552182 -1.3652361,0.683719 -2.2995151,0.317959 C 7.6582101,40.127221 6.7111026,39.332247 5.8489103,38.122935 5.2502642,37.283273 4.8496832,36.429989 4.6352427,35.589724 4.4245507,34.747398 4.4240678,34.020379 4.6079487,33.418309 c 0.187286,-0.598571 0.5501886,-1.048083 1.0772258,-1.357039 0.4307474,0.737463 0.8755608,1.472462 1.3378772,2.198759 -0.8744321,0.557097 -0.9057847,1.564283 0.091315,2.966726 0.3681787,0.517852 0.7438368,0.860759 1.1084634,1.029246 0.3691155,0.166314 0.6870097,0.139257 0.9538325,-0.0698 z m 3.3117821,2.09893 c 0.492332,-0.491598 1.051657,-0.80665 1.660155,-0.975497 0.609215,-0.169046 1.218286,-0.172016 1.839277,-0.03623 0.588989,0.13097 1.143268,0.377139 1.704022,0.733153 0,0 0,0 0,0 0.03316,0.02104 0.06634,0.04255 0.09954,0.06451 0.790067,0.52269 1.318577,1.114409 1.668553,1.906626 0.346682,0.777225 0.473934,1.662794 0.249028,2.631714 -0.04458,0.154326 -0.08898,0.308701 -0.133186,0.463126 -0.332154,1.02316 -0.988138,1.743238 -2.10709,2.000146 -1.101362,0.24925 -2.454419,-0.02937 -3.788859,-0.959074 -0.05804,-0.04044 -0.114961,-0.08136 -0.170748,-0.122745 0,0 0,0 0,0 -1.162745,-0.868337 -1.826732,-1.877025 -2.020181,-2.888379 -0.199626,-1.063475 0.152598,-1.971726 0.939854,-2.75781 0.01988,-0.01985 0.03975,-0.03969 0.05963,-0.05954 z m 1.702543,1.733239 c -0.422787,0.514358 -0.619562,1.01256 -0.565531,1.509305 0.05095,0.443224 0.300972,0.85774 0.754429,1.217403 0,0 0,0 0,0 0.04965,0.03915 0.10168,0.07758 0.156075,0.115189 0.551807,0.381572 1.098587,0.501088 1.587741,0.377247 0.496853,-0.129079 0.904974,-0.548494 1.260987,-1.233899 0.302102,-0.581612 0.393938,-1.111826 0.311347,-1.568605 -0.08351,-0.461846 -0.334992,-0.816662 -0.765628,-1.106208 -0.03765,-0.02531 -0.07521,-0.04914 -0.112743,-0.07147 0,0 0,0 0,0 -0.403173,-0.240646 -0.803501,-0.320655 -1.223356,-0.232712 -0.454155,0.09231 -0.929709,0.417565 -1.403321,0.993754 z m 9.138344,0.127426 c 0.01099,0.269772 0.0237,0.539544 0.03813,0.809308 0.335669,-0.408929 0.69319,-0.700916 1.091217,-0.906871 0,0 0,0 0,0 0.221658,-0.09144 0.460866,-0.158609 0.726096,-0.20804 0.68881,-0.128373 1.260383,-0.09969 1.765577,0.177884 0.500641,0.275073 0.954019,0.795355 1.294477,1.593602 l 1.729076,4.193807 c -0.906312,0.364649 -1.850495,0.671488 -2.83069,0.907381 l -1.029707,-4.357201 c -0.09114,-0.385658 -0.25688,-0.6419 -0.480805,-0.775566 -0.226252,-0.138747 -0.547694,-0.168503 -0.979716,-0.123523 -0.0078,8.09e-4 -0.01552,0.0016 -0.02323,0.0025 -0.530608,0.08092 -0.926177,0.310194 -1.226296,0.751609 l -0.06048,4.936324 c -1.045251,-0.01721 -2.07384,-0.132981 -3.075253,-0.337234 l 1.446757,-6.864419 c 0.542796,0.121197 1.084003,0.190803 1.614855,0.200422 z m 6.634133,1.741649 c -0.490313,-0.956828 -0.604854,-1.891118 -0.434954,-2.748202 0.176576,-0.871743 0.629477,-1.553396 1.430227,-2.127338 0.278338,-0.1995 0.555352,-0.354056 0.835397,-0.463868 0,0 0,0 0,0 0.433216,-0.179487 0.868985,-0.25036 1.315832,-0.20773 -0.11992,-0.188261 -0.240332,-0.376148 -0.361231,-0.563662 0.50538,-0.432271 0.99963,-0.883857 1.484219,-1.352345 l 4.72059,4.895906 c 0.426967,0.442824 0.656986,0.966377 0.668689,1.579428 0.01628,0.607447 -0.177259,1.259183 -0.598967,1.941555 -0.286851,0.464156 -0.668555,0.926678 -1.147046,1.378017 -0.22315,0.219671 -0.47079,0.436628 -0.743641,0.6487 -0.648265,0.503863 -1.3797,0.888693 -2.171625,1.140824 -0.788877,0.255592 -1.461016,0.321208 -1.97843,0.228289 0.215028,-0.549166 0.402256,-1.099009 0.565142,-1.647875 0.892351,0.07555 1.789035,-0.199399 2.600899,-0.819296 0.325976,-0.248899 0.580882,-0.505291 0.767333,-0.76187 0,0 0,0 0,0 0.160342,-0.214217 0.272844,-0.429625 0.33836,-0.644576 0.145244,-0.464124 0.05074,-0.880844 -0.265775,-1.254323 L 36.74462,42.821319 c -0.08334,0.435683 -0.273892,0.853849 -0.573369,1.247452 0,0 0,0 0,0 -0.227185,0.30546 -0.520555,0.596901 -0.881698,0.866852 -1.003155,0.74985 -2.075324,1.022567 -3.074866,0.829103 -0.995414,-0.200231 -1.715939,-0.832689 -2.21554,-1.807642 -0.01189,-0.02321 -0.02379,-0.04643 -0.03568,-0.06964 z m 2.179238,-1.123918 c 0.355282,0.535508 0.77487,0.862026 1.27714,0.961863 0.497316,0.09576 1.007888,-0.04714 1.499659,-0.431442 0.140433,-0.109744 0.264005,-0.222132 0.370816,-0.336271 0,0 0,0 0,0 0.372712,-0.392387 0.54704,-0.806137 0.529306,-1.22785 l -1.91307,-2.257403 c -0.403303,-0.09802 -0.805664,-0.02785 -1.218178,0.203494 0,0 0,10e-7 0,10e-7 -0.116454,0.06365 -0.233689,0.140049 -0.352277,0.229262 -0.434929,0.327193 -0.673039,0.722023 -0.72434,1.20866 -0.04656,0.479892 0.124028,1.036352 0.530944,1.649686 z m 10.333015,-7.901832 c -0.180278,-0.143764 -0.416112,-0.136358 -0.708416,0.018 -0.294083,0.148175 -0.68631,0.443705 -1.195218,0.883341 -1.704789,1.466232 -2.987232,1.715315 -3.751504,0.982234 -0.451008,-0.432603 -0.601926,-1.024812 -0.483519,-1.769435 0.119124,-0.753586 0.503388,-1.504659 1.159697,-2.292736 0.701303,-0.842103 1.40811,-1.40434 2.153766,-1.67744 0.746657,-0.276551 1.390004,-0.224039 1.927983,0.180089 -0.483647,0.641617 -0.974464,1.276553 -1.474425,1.901574 -0.210561,-0.168365 -0.452666,-0.220217 -0.725593,-0.158964 -0.27676,0.05862 -0.559843,0.266694 -0.85578,0.62166 -0.254073,0.304752 -0.398137,0.583694 -0.431435,0.842283 -0.03325,0.258268 0.03203,0.4607 0.198955,0.606462 0.156965,0.137065 0.366137,0.155732 0.627672,0.05173 0.260978,-0.110668 0.62503,-0.364863 1.082018,-0.769118 0.45537,-0.408573 0.852359,-0.739993 1.203273,-0.994979 1.081738,-0.783727 1.970641,-0.934208 2.691939,-0.392677 0.513773,0.385728 0.714518,0.991782 0.578533,1.825819 -0.13909,0.829378 -0.584156,1.722474 -1.354764,2.644322 -0.521861,0.624283 -1.080593,1.105156 -1.661731,1.438659 -0.580524,0.326238 -1.130416,0.489777 -1.640021,0.496387 -0.513263,0.0036 -0.919912,-0.14881 -1.224678,-0.444845 0.553222,-0.568779 1.091197,-1.150884 1.615605,-1.743557 0.265878,0.204123 0.567858,0.25024 0.906254,0.132924 0.337857,-0.117127 0.678099,-0.375915 1.012069,-0.776383 0.311272,-0.37325 0.489295,-0.70042 0.53774,-0.974993 0.0488,-0.282321 -0.01519,-0.492213 -0.18842,-0.630355 z"
       id="path8"
       inkscape:path-effect="#path-effect9"
       inkscape:original-d="m 11.439676,32.883957 q 0,-0.553384 -0.390624,-0.846352 -0.390624,-0.299479 -1.4062456,-0.624999 -1.015623,-0.33203 -1.608069,-0.65104 -1.614579,-0.872393 -1.614579,-2.350254 0,-0.768227 0.429686,-1.367184 0.436197,-0.605467 1.243487,-0.944008 0.8138,-0.338541 1.822912,-0.338541 1.0156216,0 1.8098906,0.371093 0.794269,0.364582 1.230466,1.035154 0.442707,0.670571 0.442707,1.523433 h -1.95312 q 0,-0.65104 -0.410156,-1.009112 -0.410155,-0.364582 -1.1523396,-0.364582 -0.716144,0 -1.113279,0.305989 -0.397134,0.299478 -0.397134,0.794268 0,0.462239 0.462238,0.774738 0.468749,0.312499 1.3736946,0.585936 1.666662,0.501301 2.428379,1.243486 0.761717,0.742186 0.761717,1.848954 0,1.230466 -0.930987,1.933589 -0.930988,0.696613 -2.5065046,0.696613 -1.093747,0 -1.992182,-0.397135 -0.898435,-0.403644 -1.373694,-1.100257 -0.468749,-0.696613 -0.468749,-1.61458 h 1.95963 q 0,1.569007 1.874995,1.569007 0.6966126,0 1.0872366,-0.279947 0.390624,-0.286458 0.390624,-0.794269 z m 2.864577,-1.100258 q 0,-1.048174 0.403645,-1.868485 0.403644,-0.82031 1.158851,-1.269528 0.761717,-0.449217 1.764318,-0.449217 1.425778,0 2.324213,0.872393 0.904946,0.872394 1.009112,2.369786 l 0.01302,0.48177 q 0,1.621089 -0.904946,2.60416 -0.904945,0.97656 -2.428379,0.97656 -1.523434,0 -2.43489,-0.97656 -0.904945,-0.97656 -0.904945,-2.656244 z m 1.881505,0.136719 q 0,1.002601 0.377604,1.536454 0.377603,0.527343 1.080726,0.527343 0.683592,0 1.067706,-0.520832 0.384113,-0.527343 0.384113,-1.679684 0,-0.98307 -0.384113,-1.523433 -0.384114,-0.540364 -1.080727,-0.540364 -0.690102,0 -1.067705,0.540364 -0.377604,0.533852 -0.377604,1.660152 z m 7.682273,-3.593741 0.05859,0.8138 q 0.755207,-0.944008 2.024735,-0.944008 1.119789,0 1.666662,0.65755 0.546874,0.657551 0.559895,1.966141 v 4.55077 h -1.881506 v -4.505197 q 0,-0.598957 -0.260416,-0.865883 -0.260416,-0.273437 -0.865883,-0.273437 -0.794269,0 -1.191404,0.677081 v 4.967436 h -1.881502 v -7.044253 z m 5.462227,3.470043 q 0,-1.62109 0.768227,-2.61067 0.774737,-0.989581 2.083328,-0.989581 1.158851,0 1.803381,0.794269 l 0.07812,-0.664061 h 1.705725 v 6.809878 q 0,0.924477 -0.423176,1.608069 -0.416665,0.683592 -1.178382,1.041664 -0.761717,0.358072 -1.78385,0.358072 -0.774737,0 -1.510413,-0.312499 -0.735675,-0.305989 -1.113278,-0.794269 l 0.833331,-1.14583 q 0.703123,0.787758 1.705725,0.787758 0.748696,0 1.165362,-0.403645 0.416665,-0.397134 0.416665,-1.132809 v -0.377603 q -0.65104,0.735675 -1.712235,0.735675 -1.269528,0 -2.057286,-0.989581 -0.781248,-0.996091 -0.781248,-2.636712 z m 1.881505,0.136718 q 0,0.957029 0.384114,1.503903 0.384113,0.540363 1.054685,0.540363 0.859372,0 1.230465,-0.644529 v -2.962233 q -0.377603,-0.644529 -1.217445,-0.644529 -0.677081,0 -1.067705,0.553384 -0.384114,0.553384 -0.384114,1.653641 z m 9.817683,1.490882 q 0,-0.345051 -0.345052,-0.540363 -0.33854,-0.201823 -1.093747,-0.358072 -2.513014,-0.527343 -2.513014,-2.135411 0,-0.937498 0.774737,-1.562496 0.781248,-0.631509 2.037756,-0.631509 1.341142,0 2.141921,0.631509 0.80729,0.631508 0.80729,1.64062 h -1.881506 q 0,-0.403644 -0.260416,-0.66406 -0.260416,-0.266927 -0.8138,-0.266927 -0.475259,0 -0.735675,0.214843 -0.260416,0.214844 -0.260416,0.546874 0,0.312499 0.292968,0.507811 0.299478,0.188802 1.002602,0.332031 0.703123,0.136718 1.184892,0.312499 1.490882,0.546873 1.490882,1.894526 0,0.96354 -0.826821,1.562496 -0.826821,0.592447 -2.135411,0.592447 -0.885414,0 -1.575517,-0.312499 -0.683592,-0.31901 -1.074216,-0.865884 -0.390624,-0.553384 -0.390624,-1.191403 h 1.78385 q 0.02604,0.501301 0.371093,0.768227 0.345051,0.266927 0.924476,0.266927 0.540364,0 0.8138,-0.201823 0.279948,-0.208332 0.279948,-0.540363 z"
       transform="matrix(0.9442518,0,0,1,6.7046267,-0.682418)" />
  </g>
</svg>
