<?xml version="1.0" encoding="UTF-8"?>
<svg width="427pt" height="427pt" version="1.1" viewBox="-40 0 427 427" xmlns="http://www.w3.org/2000/svg">
<path d="m231.8 150.22c-6.7396 0.14641-12.93 5.669-13.731 12.383-0.36668 2.9873-0.0635 6.0024-0.16895 9.0022-5.2e-4 60.955-9e-3 121.91 0.0224 182.87 0.22306 6.4698 5.3664 12.372 11.744 13.485 5.8392 1.174 12.257-1.675 15.219-6.8627 1.7147-2.8608 2.2205-6.2796 2.0146-9.5675 3e-4 -62.529 9e-3 -125.06-0.0227-187.59-0.225-6.5908-5.5709-12.601-12.111-13.533-0.98031-0.15759-1.9732-0.21723-2.9656-0.18514z" fill="#404040"/>
<path d="m113.77 150.22c-6.7301 0.16108-12.906 5.6771-13.706 12.383-0.36668 2.9873-0.0635 6.0024-0.16895 9.0022-5.21e-4 60.955-0.0085 121.91 0.02245 182.87 0.22306 6.4698 5.3664 12.372 11.744 13.485 5.8392 1.174 12.257-1.675 15.219-6.8627 1.7147-2.8608 2.2205-6.2796 2.0146-9.5675 2.7e-4 -62.529 9e-3 -125.06-0.0228-187.59-0.22725-6.5274-5.4664-12.492-11.931-13.502-1.0451-0.18798-2.1107-0.25522-3.1715-0.2147z" fill="#404040"/>
<path d="m217.3-4.5c-30.061 0.01136-60.122-0.02614-90.183 0.02921-13.023 0.39758-25.696 7.0085-33.459 17.476-6.0023 7.9796-9.1131 18.047-8.7564 28.019 0 2.1589-1e-6 4.3177 0 6.4766-16.257 0.0138-32.516-0.04806-48.773 0.05583-12.785 0.53392-25.127 7.251-32.56 17.66-7.0064 9.6606-9.7005 22.336-7.1094 33.998 2.3447 10.906 9.1184 20.803 18.526 26.822 2.7865 1.8072 5.7865 3.2834 8.9156 4.3959 0.0023 81.483-0.0077 162.97 0.02109 244.45 0.26659 14.821 5.9809 29.648 16.39 40.3 9.9987 10.368 24.316 16.43 38.728 16.311 43.763 0.0184 87.526 8e-3 131.29 3e-3 19.758-0.0139 39.517 0.0123 59.275-0.0268 14.821-0.39217 29.319-7.3091 38.975-18.557 9.387-10.786 14.369-25.118 14.31-39.368 0.0325-12.517 9.8e-4 -25.035 0.0124-37.553v-205.55c11.793-4.1331 21.516-13.734 25.776-25.485 4.1417-11.183 3.3468-24.107-2.2822-34.638-5.071-9.6413-13.932-17.24-24.301-20.63-5.2805-1.7738-10.892-2.3844-16.444-2.1886h-43.759c-0.0258-6.1313 0.35478-12.369-1.181-18.369-2.678-11.282-9.9961-21.408-19.98-27.339-7.0177-4.2281-15.236-6.4516-23.431-6.2921zm-86.971 28.988c13.44 0.03074 26.882 0.0041 40.322 0.01509 16.117 0.01104 32.234-0.01611 48.35 0.01878 5.6822 0.28418 11.006 4.1635 12.942 9.5274 0.95525 2.3653 1.0278 4.9422 0.96079 7.4563-9.1e-4 1.998-2e-3 3.9961-3e-3 5.9941h-119c0.0423-3.5628-0.15918-7.1425 0.1949-10.692 0.95217-5.9494 5.8892-11.053 11.856-12.051 1.4419-0.25715 2.9124-0.27331 4.3729-0.26819zm-92.051 52.012c90.35 8.55e-4 180.7-0.0048 271.05 0.01882 5.9024 0.23006 11.318 4.8143 12.472 10.618 1.0702 4.9301-0.81281 10.42-4.8669 13.48-2.7425 2.161-6.3079 3.1249-9.7714 2.8833-89.897-8.4e-4 -179.79 5e-3 -269.69-0.0188-5.8923-0.23002-11.304-4.7997-12.465-10.592-1.0959-4.9732 0.83102-10.527 4.9565-13.573 2.3573-1.8231 5.3322-2.8359 8.3135-2.8165zm255.62 56c-2e-3 80.707 8e-3 161.41-0.0236 242.12-0.19916 8.649-4.0084 17.373-10.91 22.746-0.66884 0.51704-1.2739 0.94008-1.9281 1.3512-4.222 2.6812-9.1726 3.985-14.206 3.775-62.964 5e-3 -125.93 0.0204-188.89-0.0101-0.7705-0.0169-1.4586-0.0693-2.1345-0.15214-0.8598-0.10373-1.6772-0.25277-2.4289-0.42379-3.6084-0.83677-7.0119-2.515-9.9004-4.8301-0.73622-0.58158-1.6323-1.3924-2.3559-2.1429-3.2693-3.379-5.5983-7.612-6.9097-12.115-0.22849-0.7739-0.49478-1.8411-0.67091-2.7418-0.93847-4.4325-0.55086-8.9818-0.63546-13.475-0.0097-78.034-0.0014-156.07-0.0042-234.1h241z" fill="#404040"/>
<path d="m172.8 150.22c-6.7396 0.14641-12.93 5.669-13.731 12.383-0.36668 2.9873-0.0635 6.0024-0.16895 9.0022-5.2e-4 60.955-9e-3 121.91 0.0224 182.87 0.22306 6.4698 5.3664 12.372 11.744 13.485 5.8392 1.174 12.257-1.675 15.219-6.8627 1.7147-2.8608 2.2205-6.2796 2.0146-9.5675 3e-4 -62.529 9e-3 -125.06-0.0227-187.59-0.225-6.5908-5.5709-12.601-12.111-13.533-0.98031-0.15759-1.9732-0.21723-2.9656-0.18514z" fill="#404040"/>
</svg>
