<?xml version="1.0" encoding="UTF-8" standalone="no"?>
<svg
   height="427pt"
   viewBox="-40 0 427 427.00131"
   width="427pt"
   version="1.1"
   id="svg91"
   sodipodi:docname="bin.svg"
   inkscape:version="1.1 (c68e22c387, 2021-05-23)"
   xmlns:inkscape="http://www.inkscape.org/namespaces/inkscape"
   xmlns:sodipodi="http://sodipodi.sourceforge.net/DTD/sodipodi-0.dtd"
   xmlns="http://www.w3.org/2000/svg"
   xmlns:svg="http://www.w3.org/2000/svg">
  <defs
     id="defs95" />
  <sodipodi:namedview
     id="namedview93"
     pagecolor="#ffffff"
     bordercolor="#666666"
     borderopacity="1.0"
     inkscape:pageshadow="2"
     inkscape:pageopacity="0.0"
     inkscape:pagecheckerboard="0"
     inkscape:document-units="pt"
     showgrid="false"
     inkscape:zoom="0.62090164"
     inkscape:cx="117.57096"
     inkscape:cy="337.41254"
     inkscape:window-width="1680"
     inkscape:window-height="979"
     inkscape:window-x="121"
     inkscape:window-y="34"
     inkscape:window-maximized="1"
     inkscape:current-layer="svg91" />
  <path
     id="path83"
     d="m 231.79883,150.2168 c -6.73962,0.14641 -12.93037,5.669 -13.73147,12.38298 -0.36668,2.98727 -0.0635,6.00236 -0.16895,9.00217 -5.2e-4,60.95499 -0.009,121.91043 0.0224,182.86512 0.22306,6.46979 5.36643,12.37186 11.74431,13.48467 5.83916,1.17402 12.2571,-1.675 15.21867,-6.86272 1.71471,-2.86077 2.2205,-6.27963 2.01461,-9.56754 3e-4,-62.52867 0.009,-125.05783 -0.0227,-187.58619 -0.225,-6.59075 -5.57089,-12.60111 -12.11134,-13.53335 -0.98031,-0.15759 -1.97319,-0.21723 -2.96555,-0.18514 z"
     style="fill:#404040;fill-opacity:1" />
  <path
     id="path85"
     d="m 113.77344,150.2168 c -6.73013,0.16108 -12.90584,5.67714 -13.70608,12.38298 -0.366681,2.98727 -0.0635,6.00236 -0.168946,9.00217 -5.21e-4,60.95499 -0.0085,121.91043 0.02245,182.86512 0.223059,6.46979 5.366429,12.37186 11.744309,13.48467 5.83916,1.17402 12.2571,-1.675 15.21867,-6.86272 1.71471,-2.86077 2.2205,-6.27963 2.01461,-9.56754 2.7e-4,-62.52932 0.009,-125.05913 -0.0228,-187.58814 -0.22725,-6.5274 -5.46642,-12.49212 -11.93075,-13.50184 -1.04507,-0.18798 -2.11072,-0.25522 -3.17149,-0.2147 z"
     style="fill:#404040;fill-opacity:1" />
  <path
     id="path87"
     d="m 217.29688,-4.5 c -30.06077,0.01136 -60.12232,-0.02614 -90.18259,0.02921 -13.02303,0.397584 -25.69611,7.0085121 -33.459439,17.4755994 -6.002266,7.979647 -9.113084,18.0466 -8.756413,28.018629 0,2.158854 -10e-7,4.317708 0,6.476562 -16.257377,0.0138 -32.516122,-0.04806 -48.772609,0.05583 -12.78453,0.533919 -25.127201,7.251 -32.5600959,17.660367 -7.0064281,9.660647 -9.7004888,22.336055 -7.1094292,33.997759 2.3446872,10.906066 9.1184326,20.802826 18.5264901,26.821826 2.786543,1.80719 5.786516,3.28344 8.915644,4.39586 0.0023,81.48275 -0.0077,162.96575 0.02109,244.44835 0.266586,14.82076 5.980943,29.64791 16.390464,40.2998 9.998683,10.36838 24.315599,16.43043 38.727502,16.31121 43.762843,0.0184 87.526073,0.008 131.289063,0.003 19.75818,-0.0139 39.51698,0.0123 59.27477,-0.0268 14.82061,-0.39217 29.3193,-7.30913 38.97502,-18.55692 9.38698,-10.78571 14.36905,-25.11766 14.30968,-39.36799 0.0325,-12.51734 9.8e-4,-25.03503 0.0124,-37.55253 0,-68.51614 0,-137.03229 0,-205.54843 11.79252,-4.13313 21.51641,-13.73402 25.77554,-25.48521 4.14169,-11.182546 3.34683,-24.107262 -2.28225,-34.637712 C 341.32075,60.677071 332.45931,53.078119 322.09083,49.688623 316.81031,47.91486 311.19848,47.304228 305.64727,47.5 c -14.5862,0 -29.1724,0 -43.7586,0 -0.0258,-6.131331 0.35478,-12.368704 -1.18104,-18.369031 C 258.02962,17.849222 250.71153,7.7225441 240.72739,1.7921203 233.7097,-2.4360174 225.49117,-4.6594938 217.29688,-4.5 Z m -86.97071,28.988281 c 13.44028,0.03074 26.88158,0.0041 40.32227,0.01509 16.1167,0.01104 32.23431,-0.01611 48.35044,0.01878 5.68217,0.284183 11.00561,4.163522 12.94152,9.527364 0.95525,2.365267 1.02779,4.942161 0.96079,7.456345 -9.1e-4,1.998047 -0.002,3.996094 -0.003,5.994141 -39.66537,0 -79.33073,0 -118.9961,0 0.0423,-3.562762 -0.15918,-7.142464 0.1949,-10.692266 0.95217,-5.949421 5.88925,-11.052743 11.85605,-12.051267 1.44186,-0.257154 2.91243,-0.273306 4.37288,-0.268186 z M 38.275391,76.5 c 90.350299,8.55e-4 180.700959,-0.0048 271.051039,0.01882 5.90238,0.230057 11.31812,4.814345 12.4724,10.617904 1.07021,4.930125 -0.81281,10.420302 -4.86693,13.479971 -2.74252,2.16103 -6.30788,3.12488 -9.77135,2.88331 -89.89666,-8.4e-4 -179.79367,0.005 -269.690105,-0.0188 C 31.578177,103.25119 26.166552,98.681516 25.00539,92.889178 23.909449,87.915976 25.836409,82.362304 29.961918,79.31653 32.319213,77.493397 35.294078,76.480603 38.275391,76.5 Z m 255.623049,56 c -0.002,80.7067 0.008,161.41368 -0.0236,242.12021 -0.19916,8.64899 -4.00841,17.37318 -10.91043,22.74578 -0.66884,0.51704 -1.27387,0.94008 -1.92806,1.35123 -4.22196,2.68115 -9.17261,3.98503 -14.20631,3.77502 -62.96386,0.005 -125.92801,0.0204 -188.891691,-0.0101 -0.770496,-0.0169 -1.458649,-0.0693 -2.134523,-0.15214 -0.859803,-0.10373 -1.677196,-0.25277 -2.428866,-0.42379 -3.608361,-0.83677 -7.011871,-2.51496 -9.900391,-4.83008 -0.736219,-0.58158 -1.632321,-1.39245 -2.35593,-2.14286 -3.269321,-3.37895 -5.598259,-7.61195 -6.909695,-12.11495 -0.228494,-0.7739 -0.494777,-1.84114 -0.67091,-2.74176 -0.93847,-4.43253 -0.550858,-8.98177 -0.635456,-13.47504 -0.0097,-78.03385 -0.0014,-156.06771 -0.0042,-234.10156 80.333332,0 160.666662,0 241.000002,0 z"
     style="fill:#404040;fill-opacity:1" />
  <path
     id="path89"
     d="m 172.79883,150.2168 c -6.73962,0.14641 -12.93037,5.669 -13.73147,12.38298 -0.36668,2.98727 -0.0635,6.00236 -0.16895,9.00217 -5.2e-4,60.95499 -0.009,121.91043 0.0224,182.86512 0.22306,6.46979 5.36643,12.37186 11.74431,13.48467 5.83916,1.17402 12.2571,-1.675 15.21867,-6.86272 1.71471,-2.86077 2.2205,-6.27963 2.01461,-9.56754 3e-4,-62.52867 0.009,-125.05783 -0.0227,-187.58619 -0.225,-6.59075 -5.57089,-12.60111 -12.11134,-13.53335 -0.98031,-0.15759 -1.97319,-0.21723 -2.96555,-0.18514 z"
     style="fill:#404040;fill-opacity:1" />
</svg>
