<?xml version="1.0" encoding="UTF-8"?>
<svg enable-background="new 0 0 512.001 512.001" version="1.1" viewBox="0 0 512 512" xml:space="preserve" xmlns="http://www.w3.org/2000/svg">

	
		<path d="m441.66 104.52-23.609-23.609c-19.527-19.538-51.316-19.527-70.832 0l-7.869 7.869-23.614-23.614c-6.521-6.521-17.087-6.521-23.609 0l-44.575 44.575c-21.699-9.182-45.244-14.01-69.55-14.01-47.625 0-92.343 18.494-125.92 52.076-69.435 69.435-69.435 182.42 0 251.85 33.582 33.582 78.299 52.076 125.92 52.076s92.348-18.494 125.93-52.076 52.076-78.299 52.076-125.92c0-24.306-4.828-47.851-14.01-69.551l44.575-44.575c6.521-6.516 6.521-17.092 0-23.609l-23.614-23.614 7.869-7.869c6.506-6.506 17.097-6.516 23.614 0l23.609 23.609c3.261 3.261 7.533 4.892 11.804 4.892s8.544-1.631 11.804-4.892c6.522-6.515 6.522-17.092 1e-3 -23.607zm-161.34 271.53c-27.277 27.272-63.614 42.293-102.32 42.293s-75.038-15.022-102.32-42.293c-56.414-56.418-56.414-148.22 0-204.64 27.277-27.272 63.608-42.293 102.32-42.293 22.581 0 44.351 5.121 63.991 14.796 0.474 0.305 0.957 0.599 1.465 0.856 11.984 6.082 22.928 13.665 32.612 22.57 0.13 0.12 0.259 0.242 0.388 0.362 1.31 1.213 2.6 2.448 3.863 3.71 1.262 1.263 2.495 2.553 3.71 3.863 0.12 0.129 0.242 0.259 0.362 0.39 8.905 9.683 16.489 20.628 22.57 32.612 0.257 0.509 0.551 0.991 0.856 1.465 9.675 19.64 14.796 41.411 14.796 63.991 2e-3 38.706-15.02 75.037-42.292 102.31zm45.008-202.42c-5.468-8.023-11.62-15.652-18.444-22.8-0.973-1.021-1.958-2.031-2.956-3.029-0.998-0.997-2.008-1.982-3.029-2.956-7.148-6.823-14.777-12.976-22.8-18.444l25.828-25.828 47.229 47.229-25.828 25.828z"/>
	


	
		<path d="m507.11 167.23-11.129-11.13c-6.511-6.521-17.087-6.521-23.609 0-6.521 6.516-6.521 17.087 0 23.609l11.13 11.13c3.261 3.261 7.533 4.892 11.804 4.892s8.544-1.631 11.804-4.892c6.522-6.516 6.522-17.087 0-23.609z"/>
	


	
		<path d="m440.33 156.1c-6.521-6.522-17.097-6.522-23.608 0l-11.13 11.13c-6.521 6.521-6.521 17.092 0 23.609 3.261 3.261 7.533 4.892 11.804 4.892s8.544-1.631 11.804-4.892l11.13-11.13c6.521-6.522 6.521-17.092 0-23.609z"/>
	


	
		<path d="m507.11 89.319c-3.261-3.261-7.533-4.892-11.805-4.892s-8.544 1.631-11.804 4.892l-11.13 11.13c-6.521 6.521-6.521 17.092 0 23.609 6.521 6.521 17.097 6.521 23.609 0l11.13-11.13c6.521-6.521 6.521-17.092 0-23.609z"/>
	


	
		<path d="m256.76 328.71c-6.522-6.522-17.087-6.522-23.609 0-14.733 14.733-34.294 22.847-55.066 22.847s-40.331-8.114-55.066-22.847c-6.521-6.521-17.087-6.521-23.609 0-6.521 6.516-6.521 17.092 0 23.609 21.038 21.043 48.978 32.63 78.674 32.63s57.636-11.587 78.674-32.63c6.523-6.517 6.523-17.093 2e-3 -23.609z"/>
	
















</svg>
