<?xml version="1.0" encoding="UTF-8"?>
<svg fill="none" version="1.1" viewBox="0 0 61.29 62.39" xmlns="http://www.w3.org/2000/svg">
<defs>
<radialGradient id="a" cx="0" cy="0" r="1" gradientTransform="matrix(-11.815 22.154 -22.154 -11.815 34.8 23.723)" gradientUnits="userSpaceOnUse">
<stop stop-color="#fff" offset=".23308"/>
<stop stop-color="#E0E0E0" offset="1"/>
</radialGradient>
<filter id="b" x="-.15217" y="-.15217" width="1.3324" height="1.3563" color-interpolation-filters="sRGB">
<feFlood flood-color="rgb(0,0,0)" flood-opacity=".71345" in="SourceGraphic" result="flood"/>
<feGaussianBlur in="SourceGraphic" result="blur" stdDeviation="2.500000"/>
<feOffset dx="1.29" dy="2.3900000000000001" in="blur" result="offset"/>
<feComposite in="flood" in2="offset" operator="in" result="comp1"/>
<feComposite in="SourceGraphic" in2="comp1" result="comp2"/>
</filter>
</defs>
<circle cx="30" cy="30" r="23" fill="url(#a)" filter="url(#b)" stroke="#000" stroke-width="2"/>
<path transform="translate(-45.225 11.138)" d="m70.643 7.7019c-0.52143-2.2273-0.83976-4.529-0.92559-6.8686 0.93818-0.30532 1.9107-0.53729 2.9087-0.68764-0.59485 3.2806-0.58044 6.5764-0.06743 9.7464-0.35582 0.12253-0.7115 0.26521-1.0632 0.4245-0.1252 0.05591-0.24998 0.11484-0.37436 0.17666-1.3501-1.6857-2.8792-3.2418-4.5474-4.6805 0.59754 2.1192 1.3673 4.1636 2.2677 6.1381-0.47722 0.36786-0.95091 0.76876-1.4227 1.1948-2.6227-1.8994-5.435-3.6012-8.3262-5.1388 0.57305-0.60773 1.1784-1.2059 1.8175-1.7869 1.9353 1.2808 3.8046 2.6418 5.5787 4.0914-0.99653-2.0903-1.8629-4.2567-2.554-6.5048 0.63007-0.437 1.2863-0.85354 1.9697-1.2449 1.3601 1.2249 2.6248 2.527 3.7742 3.9126 0.33262 0.40192 0.65422 0.81139 0.96422 1.2279zm6.1542 1.9464c-0.44123-0.085948-0.80317-0.22247-1.1387-0.45101h-1e-6c-0.1993-0.16778-0.39548-0.3692-0.59044-0.60867-0.49878-0.61673-0.91085-1.4191-1.0274-2.4618l-0.020206-0.18081c-0.07842-0.70172-0.0065-1.3476 0.27999-1.9245 0.28564-0.58018 0.76301-1.0364 1.4406-1.3138 0.10363-0.042684 0.2104-0.080682 0.32015-0.11382 0.60741-0.16965 1.2915-0.18572 2.0049-0.037604 1.2648 0.26262 2.1243 0.89152 2.533 1.6944 0.41677 0.81077 0.32586 1.7263-0.14673 2.7272l-0.32548 0.68935c-1.3589-0.66107-2.765-1.0796-4.2049-1.1404 0.02597 0.45991 0.16601 0.83384 0.39138 1.128 0.23113 0.2971 0.52199 0.4706 0.90511 0.5544 0.59118 0.12931 1.1231 0.051109 1.6658-0.29502 0.14728 0.42401 0.27075 0.85211 0.37321 1.2829-0.39073 0.25039-0.80027 0.3983-1.2279 0.47254-0.42734 0.07041-0.82575 0.057846-1.2324-0.021362zm0.96645-5.6199c-0.4413-0.0892-0.82719-0.018901-1.1302 0.19697-0.29977 0.21784-0.49508 0.56215-0.59976 1.0253 0.94444 0.060013 1.8677 0.24275 2.767 0.52533l0.04407-0.14074c0.11357-0.39446 0.08791-0.73565-0.09575-1.0186-0.18188-0.28608-0.51379-0.493-0.98545-0.58833zm9.047 8.0028c-0.80494 0.78796-1.6284 1.2224-2.4339 1.3446-0.80796 0.11983-1.5135-0.0872-2.1462-0.61654-0.56015-0.46867-0.81795-1.0439-0.82889-1.7839-0.16606 0.19049-0.33117 0.38159-0.49532 0.57329-0.41413-0.30322-0.82694-0.58305-1.2377-0.83331l4.8808-8.7154c0.81282 0.43214 1.5891 0.90535 2.3279 1.4111l-2.0922 2.9559c0.73839-0.10889 1.4907 0.12388 2.1801 0.69875 0.83979 0.70027 1.2301 1.5289 1.2031 2.3968-0.02034 0.87403-0.46479 1.6947-1.2833 2.4959-0.02484 0.02431-0.04968 0.04863-0.07451 0.07294zm-1.4327-1.5416c0.48158-0.5375 0.73608-1.0127 0.75216-1.4384 0.018871-0.42647-0.18021-0.81995-0.60166-1.1565-0.56597-0.45195-1.1208-0.53987-1.6204-0.28857l-1.6214 2.2907c-0.09798 0.54656 0.08434 0.99276 0.55664 1.3752 0.47624 0.38565 0.98375 0.42856 1.5407 0.10816 0.26459-0.15242 0.59867-0.44942 0.99388-0.89052z" fill="#000"/>
<path d="m23.224 31.001q0-1.0482 0.40364-1.8685 0.40364-0.82031 1.1589-1.2695 0.76172-0.44922 1.7643-0.44922 1.4258 0 2.3242 0.87239 0.90495 0.87239 1.0091 2.3698l0.01302 0.48177q0 1.6211-0.90495 2.6042-0.90494 0.97656-2.4284 0.97656t-2.4349-0.97656q-0.90494-0.97656-0.90494-2.6562zm1.8815 0.13672q0 1.0026 0.3776 1.5365 0.3776 0.52734 1.0807 0.52734 0.68359 0 1.0677-0.52083 0.38411-0.52734 0.38411-1.6797 0-0.98307-0.38411-1.5234-0.38411-0.54036-1.0807-0.54036-0.6901 0-1.0677 0.54036-0.3776 0.53385-0.3776 1.6602zm6.4648 3.4505v-5.664h-1.0482v-1.3802h1.0482v-0.59896q0-1.1849 0.67708-1.8359 0.68359-0.65755 1.9075-0.65755 0.39062 0 0.95703 0.13021l-0.01953 1.4583q-0.23437-0.05859-0.57292-0.05859-1.0612 0-1.0612 0.99609v0.5664h1.3997v1.3802h-1.3997v5.664z" fill="#000"/>
<path transform="matrix(.94425 0 0 1 6.7046 -.68242)" d="m9.1767 38.186c0.29112-0.2281 0.40586-0.53844 0.35533-0.92738-0.047446-0.39469-0.24596-1.0027-0.56641-1.8482-0.31432-0.84118-0.508-1.55-0.59858-2.0859-0.24804-1.4787 0.095693-2.4634 0.93748-2.9621 0.44121-0.2614 0.92578-0.34127 1.4527-0.25179 0.53387 0.0918 1.0668 0.34892 1.6018 0.75891 0.53853 0.41486 1.0159 0.93292 1.4486 1.5544 0.43458 0.62426 0.72567 1.2277 0.88623 1.8367 0.16358 0.6049 0.18478 1.1684 0.05928 1.7047-0.12212 0.53873-0.38212 1.0074-0.79916 1.3904-0.50481-0.55672-0.99195-1.1438-1.4648-1.7552 0.34204-0.26812 0.50889-0.60385 0.50946-1.0013 4e-3 -0.40158-0.15904-0.82995-0.49021-1.3046-0.32009-0.45876-0.64818-0.76662-0.99526-0.91882-0.34265-0.15425-0.65379-0.14607-0.93256 0.03413-0.25994 0.16803-0.37596 0.46823-0.33974 0.9025 0.03888 0.43524 0.19366 1.0237 0.47945 1.7369 0.52782 1.3131 0.84322 2.3532 0.88554 3.1605 0.04242 0.80917-0.18017 1.468-0.72219 1.9658-0.60123 0.55218-1.3652 0.68372-2.2995 0.31796-0.92578-0.36653-1.8729-1.1615-2.7351-2.3708-0.59865-0.83966-0.99923-1.6929-1.2137-2.5332-0.21069-0.84233-0.21117-1.5693-0.027294-2.1714 0.18729-0.59857 0.55019-1.0481 1.0772-1.357 0.43075 0.73746 0.87556 1.4725 1.3379 2.1988-0.87443 0.5571-0.90578 1.5643 0.091315 2.9667 0.36818 0.51785 0.74384 0.86076 1.1085 1.0292 0.36912 0.16631 0.68701 0.13926 0.95383-0.0698zm3.3118 2.0989c0.49233-0.4916 1.0517-0.80665 1.6602-0.9755 0.60922-0.16905 1.2183-0.17202 1.8393-0.03623 0.58899 0.13097 1.1433 0.37714 1.704 0.73315 0.03316 0.02104 0.06634 0.04255 0.09954 0.06451 0.79007 0.52269 1.3186 1.1144 1.6686 1.9066 0.34668 0.77722 0.47393 1.6628 0.24903 2.6317-0.04458 0.15433-0.08898 0.3087-0.13319 0.46313-0.33215 1.0232-0.98814 1.7432-2.1071 2.0001-1.1014 0.24925-2.4544-0.02937-3.7889-0.95907-0.05804-0.04044-0.11496-0.08136-0.17075-0.12274-1.1627-0.86834-1.8267-1.877-2.0202-2.8884-0.19963-1.0635 0.1526-1.9717 0.93985-2.7578 0.01988-0.01985 0.03975-0.03969 0.05963-0.05954zm1.7025 1.7332c-0.42279 0.51436-0.61956 1.0126-0.56553 1.5093 0.05095 0.44322 0.30097 0.85774 0.75443 1.2174 0.04965 0.03915 0.10168 0.07758 0.15608 0.11519 0.55181 0.38157 1.0986 0.50109 1.5877 0.37725 0.49685-0.12908 0.90497-0.54849 1.261-1.2339 0.3021-0.58161 0.39394-1.1118 0.31135-1.5686-0.08351-0.46185-0.33499-0.81666-0.76563-1.1062-0.03765-0.02531-0.07521-0.04914-0.11274-0.07147-0.40317-0.24065-0.8035-0.32066-1.2234-0.23271-0.45416 0.09231-0.92971 0.41756-1.4033 0.99375zm9.1383 0.12743c0.01099 0.26977 0.0237 0.53954 0.03813 0.80931 0.33567-0.40893 0.69319-0.70092 1.0912-0.90687 0.22166-0.09144 0.46087-0.15861 0.7261-0.20804 0.68881-0.12837 1.2604-0.09969 1.7656 0.17788 0.50064 0.27507 0.95402 0.79536 1.2945 1.5936l1.7291 4.1938c-0.90631 0.36465-1.8505 0.67149-2.8307 0.90738l-1.0297-4.3572c-0.09114-0.38566-0.25688-0.6419-0.4808-0.77557-0.22625-0.13875-0.54769-0.1685-0.97972-0.12352-0.0078 8.09e-4 -0.01552 0.0016-0.02323 0.0025-0.53061 0.08092-0.92618 0.31019-1.2263 0.75161l-0.06048 4.9363c-1.0453-0.01721-2.0738-0.13298-3.0753-0.33723l1.4468-6.8644c0.5428 0.1212 1.084 0.1908 1.6149 0.20042zm6.6341 1.7416c-0.49031-0.95683-0.60485-1.8911-0.43495-2.7482 0.17658-0.87174 0.62948-1.5534 1.4302-2.1273 0.27834-0.1995 0.55535-0.35406 0.8354-0.46387 0.43322-0.17949 0.86898-0.25036 1.3158-0.20773-0.11992-0.18826-0.24033-0.37615-0.36123-0.56366 0.50538-0.43227 0.99963-0.88386 1.4842-1.3523l4.7206 4.8959c0.42697 0.44282 0.65699 0.96638 0.66869 1.5794 0.01628 0.60745-0.17726 1.2592-0.59897 1.9416-0.28685 0.46416-0.66856 0.92668-1.147 1.378-0.22315 0.21967-0.47079 0.43663-0.74364 0.6487-0.64826 0.50386-1.3797 0.88869-2.1716 1.1408-0.78888 0.25559-1.461 0.32121-1.9784 0.22829 0.21503-0.54917 0.40226-1.099 0.56514-1.6479 0.89235 0.07555 1.789-0.1994 2.6009-0.8193 0.32598-0.2489 0.58088-0.50529 0.76733-0.76187 0.16034-0.21422 0.27284-0.42962 0.33836-0.64458 0.14524-0.46412 0.05074-0.88084-0.26578-1.2543l-0.24386-0.28776c-0.08334 0.43568-0.27389 0.85385-0.57337 1.2475-0.22718 0.30546-0.52056 0.5969-0.8817 0.86685-1.0032 0.74985-2.0753 1.0226-3.0749 0.8291-0.99541-0.20023-1.7159-0.83269-2.2155-1.8076-0.01189-0.02321-0.02379-0.04643-0.03568-0.06964zm2.1792-1.1239c0.35528 0.53551 0.77487 0.86203 1.2771 0.96186 0.49732 0.09576 1.0079-0.04714 1.4997-0.43144 0.14043-0.10974 0.264-0.22213 0.37082-0.33627 0.37271-0.39239 0.54704-0.80614 0.52931-1.2278l-1.9131-2.2574c-0.4033-0.09802-0.80566-0.02785-1.2182 0.20349v1e-6c-0.11645 0.06365-0.23369 0.14005-0.35228 0.22926-0.43493 0.32719-0.67304 0.72202-0.72434 1.2087-0.04656 0.47989 0.12403 1.0364 0.53094 1.6497zm10.333-7.9018c-0.18028-0.14376-0.41611-0.13636-0.70842 0.018-0.29408 0.14818-0.68631 0.4437-1.1952 0.88334-1.7048 1.4662-2.9872 1.7153-3.7515 0.98223-0.45101-0.4326-0.60193-1.0248-0.48352-1.7694 0.11912-0.75359 0.50339-1.5047 1.1597-2.2927 0.7013-0.8421 1.4081-1.4043 2.1538-1.6774 0.74666-0.27655 1.39-0.22404 1.928 0.18009-0.48365 0.64162-0.97446 1.2766-1.4744 1.9016-0.21056-0.16836-0.45267-0.22022-0.72559-0.15896-0.27676 0.05862-0.55984 0.26669-0.85578 0.62166-0.25407 0.30475-0.39814 0.58369-0.43144 0.84228-0.03325 0.25827 0.03203 0.4607 0.19896 0.60646 0.15696 0.13706 0.36614 0.15573 0.62767 0.05173 0.26098-0.11067 0.62503-0.36486 1.082-0.76912 0.45537-0.40857 0.85236-0.73999 1.2033-0.99498 1.0817-0.78373 1.9706-0.93421 2.6919-0.39268 0.51377 0.38573 0.71452 0.99178 0.57853 1.8258-0.13909 0.82938-0.58416 1.7225-1.3548 2.6443-0.52186 0.62428-1.0806 1.1052-1.6617 1.4387-0.58052 0.32624-1.1304 0.48978-1.64 0.49639-0.51326 0.0036-0.91991-0.14881-1.2247-0.44484 0.55322-0.56878 1.0912-1.1509 1.6156-1.7436 0.26588 0.20412 0.56786 0.25024 0.90625 0.13292 0.33786-0.11713 0.6781-0.37592 1.0121-0.77638 0.31127-0.37325 0.4893-0.70042 0.53774-0.97499 0.0488-0.28232-0.01519-0.49221-0.18842-0.63036z" fill="#000" stroke-width="1.0291"/>
</svg>
