<?xml version="1.0" encoding="UTF-8" standalone="no"?>
<svg
   width="100%"
   height="100%"
   viewBox="0 0 64 64"
   version="1.1"
   xml:space="preserve"
   style="fill-rule:evenodd;clip-rule:evenodd;stroke-linejoin:round;stroke-miterlimit:2;"
   id="svg3"
   xmlns="http://www.w3.org/2000/svg"
   xmlns:svg="http://www.w3.org/2000/svg"><defs
     id="defs3" /><path
     d="m 41.973,3 c 0,-1.105 -0.895,-2 -2,-2 H 24 c -1.105,0 -2,0.895 -2,2 v 27 h -6 c -0.809,0 -1.538,0.487 -1.848,1.235 -0.309,0.747 -0.138,1.607 0.434,2.179 l 16,16 c 0.781,0.781 2.047,0.781 2.828,0 l 16,-16 c 0.572,-0.572 0.743,-1.432 0.434,-2.179 C 49.538,30.487 48.809,30 48,30 h -6.027 z"
     id="path1" /><rect
     style="fill:#000000;fill-opacity:1;stroke-width:5;stroke-linecap:round;stroke-linejoin:round"
     id="rect3"
     width="62.016712"
     height="10.874489"
     x="0.77993798"
     y="51.988579"
     ry="3.6265347"
     rx="3.6265347" /></svg>
